<svg width="13" height="18" viewBox="0 0 13 18" fill="none" xmlns="http://www.w3.org/2000/svg">
<path d="M6.264 17.5409C8.088 17.5409 9.696 17.1173 10.776 16.1207C11.76 15.1988 12.408 13.8035 12.408 11.8849V0.373741H8.664V1.74412H8.616C7.896 0.672733 6.792 0 5.16 0C2.112 0 0 2.6411 0 6.3785C0 10.2903 2.568 12.4331 5.328 12.4331C6.816 12.4331 7.752 11.8102 8.472 10.9631H8.568V12.2338C8.568 13.7786 7.872 14.6755 6.216 14.6755C4.92 14.6755 4.272 14.1025 4.056 13.4297H0.264C0.648 16.0958 2.88 17.5409 6.264 17.5409ZM6.24 9.41826C4.776 9.41826 3.816 8.17246 3.816 6.25392C3.816 4.31047 4.776 3.06467 6.24 3.06467C7.872 3.06467 8.736 4.5098 8.736 6.22901C8.736 8.02296 7.944 9.41826 6.24 9.41826Z" fill="#340E0E"/>
</svg>
