<svg width="13" height="18" viewBox="0 0 13 18" fill="none" xmlns="http://www.w3.org/2000/svg">
<path d="M0 17.3416H3.91199V11.8102H3.96C4.728 12.8816 5.85599 13.5294 7.43999 13.5294C10.656 13.5294 12.792 10.8883 12.792 6.75224C12.792 2.91518 10.8 0 7.536 0C5.856 0 4.65599 0.772397 3.81599 1.91853H3.744V0.373741H0V17.3416ZM6.432 10.39C4.752 10.39 3.792 8.96977 3.792 6.90174C3.792 4.83371 4.65599 3.264 6.35999 3.264C8.03999 3.264 8.83199 4.70913 8.83199 6.90174C8.83199 9.06944 7.92 10.39 6.432 10.39Z" fill="#340E0E"/>
</svg>
