<svg width="20" height="14" viewBox="0 0 20 14" fill="none" xmlns="http://www.w3.org/2000/svg">
<path d="M0 13.1307H3.912V5.97985C3.912 4.45997 4.632 3.38858 5.856 3.38858C7.032 3.38858 7.584 4.18589 7.584 5.55627V13.1307H11.496V5.97985C11.496 4.45997 12.192 3.38858 13.44 3.38858C14.616 3.38858 15.168 4.18589 15.168 5.55627V13.1307H19.08V4.83371C19.08 1.96837 17.688 0 14.904 0C13.32 0 12 0.697649 11.04 2.24244H10.992C10.368 0.872061 9.144 0 7.536 0C5.76 0 4.58399 0.872061 3.81599 2.19261H3.744V0.373741H0V13.1307Z" fill="#340E0E"/>
</svg>
