<svg width="12" height="14" viewBox="0 0 12 14" fill="none" xmlns="http://www.w3.org/2000/svg">
<path d="M5.976 13.5294C9.192 13.5294 11.568 12.0843 11.568 9.29368C11.568 6.02968 9.024 5.45661 6.864 5.08287C5.304 4.78388 3.912 4.6593 3.912 3.76232C3.912 2.96501 4.656 2.59127 5.616 2.59127C6.696 2.59127 7.44 2.94009 7.584 4.08623H11.184C10.992 1.56971 9.12 0 5.64 0C2.736 0 0.335999 1.3953 0.335999 4.08623C0.335999 7.07615 2.616 7.67414 4.752 8.04788C6.384 8.34687 7.87199 8.47145 7.87199 9.61759C7.87199 10.4398 7.128 10.8883 5.952 10.8883C4.656 10.8883 3.84 10.2654 3.696 8.99469H0C0.12 11.8102 2.376 13.5294 5.976 13.5294Z" fill="#340E0E"/>
</svg>
