<svg width="170" height="42" viewBox="0 0 170 42" fill="none" xmlns="http://www.w3.org/2000/svg">
<path d="M51.8601 29.0686H63.8121V25.3312H56.1081V11.2537H51.8601V29.0686Z" fill="#340E0E"/>
<path d="M98.166 26.9646C96.462 26.9646 95.574 25.4198 95.574 23.1026C95.574 20.7854 96.462 19.2157 98.166 19.2157C99.87 19.2157 100.782 20.7854 100.782 23.1026C100.782 25.4198 99.87 26.9646 98.166 26.9646ZM98.19 29.8548C102.15 29.8548 104.742 26.9397 104.742 23.1026C104.742 19.2655 102.15 16.3503 98.19 16.3503C94.254 16.3503 91.614 19.2655 91.614 23.1026C91.614 26.9397 94.254 29.8548 98.19 29.8548Z" fill="#340E0E"/>
<path fill-rule="evenodd" clip-rule="evenodd" d="M20.6841 41.5267C31.7298 41.5267 40.6841 32.2306 40.6841 20.7633C40.6841 9.29608 31.7298 0 20.6841 0C9.63837 0 0.684082 9.29608 0.684082 20.7633C0.684082 32.2306 9.63837 41.5267 20.6841 41.5267ZM26.9234 9.67244C27.2271 8.55248 26.1802 7.89021 25.2241 8.59738L11.8772 18.4686C10.8403 19.2355 11.0034 20.7633 12.1222 20.7633H15.6368V20.7351H22.4866L16.9053 22.7795L14.4448 31.8543C14.1411 32.9743 15.1879 33.6365 16.1441 32.9293L29.491 23.0582C30.5279 22.2913 30.3647 20.7633 29.246 20.7633H23.9162L26.9234 9.67244Z" fill="#F5841F"/>
<path d="M70.8932 26.9647C69.1892 26.9647 68.3012 25.4199 68.3012 23.1027C68.3012 20.7855 69.1892 19.2158 70.8932 19.2158C72.5972 19.2158 73.5092 20.7855 73.5092 23.1027C73.5092 25.4199 72.5972 26.9647 70.8932 26.9647ZM70.9172 29.855C74.8772 29.855 77.4692 26.9398 77.4692 23.1027C77.4692 19.2656 74.8772 16.3505 70.9172 16.3505C66.9812 16.3505 64.3412 19.2656 64.3412 23.1027C64.3412 26.9398 66.9812 29.855 70.9172 29.855Z" fill="#340E0E"/>
<path d="M84.3237 33.8663C86.1477 33.8663 87.7557 33.4428 88.8357 32.4461C89.8197 31.5242 90.4677 30.1289 90.4677 28.2104V16.6992H86.7237V18.0696H86.6757C85.9557 16.9982 84.8517 16.3254 83.2197 16.3254C80.1717 16.3254 78.0597 18.9665 78.0597 22.7039C78.0597 26.6158 80.6277 28.7585 83.3877 28.7585C84.8757 28.7585 85.8117 28.1356 86.5317 27.2885H86.6277V28.5592C86.6277 30.104 85.9317 31.001 84.2757 31.001C82.9797 31.001 82.3317 30.4279 82.1157 29.7552H78.3237C78.7077 32.4212 80.9397 33.8663 84.3237 33.8663ZM84.2997 25.7437C82.8357 25.7437 81.8757 24.4979 81.8757 22.5794C81.8757 20.6359 82.8357 19.3901 84.2997 19.3901C85.9317 19.3901 86.7957 20.8352 86.7957 22.5544C86.7957 24.3484 86.0037 25.7437 84.2997 25.7437Z" fill="#340E0E"/>
<path d="M105.884 29.4563H109.796V16.6993H105.884V29.4563ZM105.884 14.9303H109.796V11.6414H105.884V14.9303Z" fill="#340E0E"/>
<path d="M111.494 33.667H115.406V28.1356H115.454C116.222 29.207 117.35 29.8548 118.934 29.8548C122.15 29.8548 124.286 27.2137 124.286 23.0777C124.286 19.2406 122.294 16.3254 119.03 16.3254C117.35 16.3254 116.15 17.0978 115.31 18.244H115.238V16.6992H111.494V33.667ZM117.926 26.7154C116.246 26.7154 115.286 25.2952 115.286 23.2272C115.286 21.1592 116.15 19.5894 117.854 19.5894C119.534 19.5894 120.326 21.0346 120.326 23.2272C120.326 25.3949 119.414 26.7154 117.926 26.7154Z" fill="#340E0E"/>
<path d="M130.655 29.8548C133.871 29.8548 136.247 28.4097 136.247 25.6191C136.247 22.3551 133.703 21.7821 131.543 21.4083C129.983 21.1093 128.591 20.9847 128.591 20.0878C128.591 19.2904 129.335 18.9167 130.295 18.9167C131.375 18.9167 132.119 19.2655 132.263 20.4117H135.863C135.671 17.8952 133.799 16.3254 130.319 16.3254C127.415 16.3254 125.015 17.7207 125.015 20.4117C125.015 23.4016 127.295 23.9996 129.431 24.3733C131.063 24.6723 132.551 24.7969 132.551 25.943C132.551 26.7653 131.807 27.2137 130.631 27.2137C129.335 27.2137 128.519 26.5908 128.375 25.3201H124.679C124.799 28.1356 127.055 29.8548 130.655 29.8548Z" fill="#340E0E"/>
<path d="M141.561 29.83C143.265 29.83 144.345 29.1323 145.233 27.8865H145.305V29.4562H149.049V16.6992H145.137V23.8252C145.137 25.3451 144.321 26.3916 142.977 26.3916C141.729 26.3916 141.129 25.6192 141.129 24.2239V16.6992H137.241V25.071C137.241 27.9114 138.729 29.83 141.561 29.83Z" fill="#340E0E"/>
<path d="M150.75 29.4562H154.662V22.3053C154.662 20.7854 155.382 19.714 156.606 19.714C157.782 19.714 158.334 20.5113 158.334 21.8817V29.4562H162.246V22.3053C162.246 20.7854 162.942 19.714 164.19 19.714C165.366 19.714 165.918 20.5113 165.918 21.8817V29.4562H169.83V21.1591C169.83 18.2938 168.438 16.3254 165.654 16.3254C164.07 16.3254 162.75 17.0231 161.79 18.5679H161.742C161.118 17.1975 159.894 16.3254 158.286 16.3254C156.51 16.3254 155.334 17.1975 154.566 18.518H154.494V16.6992H150.75V29.4562Z" fill="#340E0E"/>
</svg>
