<svg width="15" height="15" viewBox="0 0 15 15" fill="none" xmlns="http://www.w3.org/2000/svg">
  <path fill-rule="evenodd" clip-rule="evenodd"
    d="M2.39974 1.33391C2.92032 0.812894 3.76473 0.812658 4.28561 1.33338L6.74744 3.7945C7.26811 4.31503 7.26835 5.15905 6.74796 5.67987L5.87538 6.55317L8.71158 9.38892L9.58359 8.51619C10.1042 7.99517 10.9486 7.99494 11.4695 8.51566L13.6666 10.7121C14.1873 11.2327 14.1875 12.0767 13.6671 12.5975L12.2137 14.0521C11.3615 14.905 10.0496 15.0954 8.99016 14.5198C5.39188 12.565 2.43607 9.60962 0.480401 6.01191C-0.0951848 4.95304 0.0941565 3.64139 0.946127 2.78872L2.39974 1.33391ZM5.80476 4.73745L3.34293 2.27633L1.88933 3.73114C1.45489 4.16593 1.35823 4.83497 1.65185 5.37513C3.48459 8.74671 6.25463 11.5164 9.62663 13.3482C10.1669 13.6417 10.8359 13.5446 11.2705 13.1097L12.7239 11.6551L10.5268 9.4586L8.71205 11.2748L3.99008 6.55363L5.80476 4.73745Z"
    fill="#F5841F" />
</svg>