<svg width="53" height="18" viewBox="0 0 53 18" fill="none" xmlns="http://www.w3.org/2000/svg">
<g clip-path="url(#clip0_113_623)">
<path d="M17.0492 4.815C16.9601 4.45906 16.7787 4.13293 16.5232 3.86955C16.2677 3.60618 15.9473 3.41489 15.5942 3.315C14.3042 3 9.14423 3 9.14423 3C9.14423 3 3.98423 3 2.69423 3.345C2.34116 3.44489 2.02071 3.63618 1.76524 3.89955C1.50976 4.16293 1.32832 4.48906 1.23923 4.845C1.00314 6.15417 0.887655 7.48223 0.894228 8.8125C0.885812 10.1528 1.0013 11.491 1.23923 12.81C1.33745 13.1549 1.52296 13.4686 1.77784 13.7209C2.03271 13.9731 2.34834 14.1554 2.69423 14.25C3.98423 14.595 9.14423 14.595 9.14423 14.595C9.14423 14.595 14.3042 14.595 15.5942 14.25C15.9473 14.1501 16.2677 13.9588 16.5232 13.6954C16.7787 13.4321 16.9601 13.1059 17.0492 12.75C17.2835 11.4507 17.399 10.1328 17.3942 8.8125C17.4026 7.47222 17.2872 6.13402 17.0492 4.815V4.815Z" stroke="#F5841F" stroke-width="1.2" stroke-linecap="round" stroke-linejoin="round"/>
<path d="M7.45679 11.265L11.7693 8.81249L7.45679 6.35999V11.265Z" stroke="#F5841F" stroke-width="1.2" stroke-linecap="round" stroke-linejoin="round"/>
</g>
<path d="M46.1443 6C47.3378 6 48.4824 6.47411 49.3263 7.31802C50.1702 8.16193 50.6443 9.30653 50.6443 10.5V15.75H47.6443V10.5C47.6443 10.1022 47.4863 9.72064 47.2049 9.43934C46.9236 9.15804 46.5421 9 46.1443 9C45.7465 9 45.3649 9.15804 45.0836 9.43934C44.8023 9.72064 44.6443 10.1022 44.6443 10.5V15.75H41.6443V10.5C41.6443 9.30653 42.1184 8.16193 42.9623 7.31802C43.8062 6.47411 44.9508 6 46.1443 6V6Z" stroke="#F5841F" stroke-width="1.2" stroke-linecap="round" stroke-linejoin="round"/>
<path d="M38.6443 6.75H35.6443V15.75H38.6443V6.75Z" stroke="#F5841F" stroke-width="1.2" stroke-linecap="round" stroke-linejoin="round"/>
<path d="M37.1443 4.5C37.9727 4.5 38.6443 3.82843 38.6443 3C38.6443 2.17157 37.9727 1.5 37.1443 1.5C36.3159 1.5 35.6443 2.17157 35.6443 3C35.6443 3.82843 36.3159 4.5 37.1443 4.5Z" stroke="#F5841F" stroke-width="1.2" stroke-linecap="round" stroke-linejoin="round"/>
<defs>
<clipPath id="clip0_113_623">
<rect width="18" height="18" fill="white" transform="translate(0.144287)"/>
</clipPath>
</defs>
</svg>
